<?xml version="1.0" encoding="UTF-8"?>
<svg id="Camada_1" xmlns="http://www.w3.org/2000/svg" version="1.1" viewBox="200 170 620 1600">
  <!-- Generator: Adobe Illustrator 30.2.1, SVG Export Plug-In . SVG Version: 2.1.1 Build 1)  -->
  <defs>
    <style>
      .st0 {
        fill: #fcfcfb;
      }

      .st1 {
        fill: #afa59a;
      }

      .st2 {
        fill: #898075;
      }
    </style>
  </defs>
  <g>
    <path class="st1" d="M765.39,581.46l-67.09-82.16-36.95-49.16c-11.28-15.01-26.61-24.41-45.8-26.34-18.77-1.89-36.83-4.69-54.83-10.56-15.72-5.14-26.69-17.22-28.08-34.14-.96-11.72-2.12-24.91,2.26-36.11,3.33-8.49,9.85-15.17,10.41-24.94,25.28-15.78,18.9-33.89,19.11-50.23.28-22.21,3.14-43.83-9.02-63.21-6.49-10.33-15.02-14.99-25.46-19.74-7.56-3.44-13.12-10.24-22.94-11.64-17.51-2.5-35.51-1.42-51.56,7-14.55,7.63-24.73,19.35-29.75,35.21-4.9,15.5-6.25,32.03-4.14,48.35.58,4.5-.33,7.41-1.59,11.34-2.66,8.28,1.26,17.02,2.48,24.63,1.51,9.4,11.6,11.49,14.7,17.53l14.74,28.71c5.4,10.52,1.77,25.69.79,37.31-3.33,39.37-72.85,34.01-101.86,46.2-36.81,15.46-30.3,64.67-29.58,97.39l.42,19.09,1.3,34.77,1.06,39.48c1.55,57.56-13.06,78.38-17.56,133.76l-13.98,172.05c-.92,11.34-3.97,22.19-1.43,33.27,2.54,11.08,6.14,21.87,10.18,32.58,4.76,12.62,23.5,17.97,28.26,23.62,2.35,2.79,9.41,6.4,12.48,3.06,3.56-3.88-.26-10.67-1.84-14.86,3.25-.42,9.47,2.32,11.75-1.31,2.68-4.26-1.58-10.26-4.91-12.98-4.81-3.95-7.05-8.93-6.41-15.4,1.37-13.97,1.41-27.6,1.45-41.75.09-34.77-13.26-39.22-4.68-70.44l27.06-98.45,9.11-31.96c.75-2.63,1.22-5.34,1.39-8.07l4.44-69.65,2.78-38.11c.62-8.42-1.13-16.37,1.76-24.79l11.76,68.65c2.59,15.1,2.38,29.84-3.05,44.01l-11.21,29.24s-1.6,4.62-1.62,4.67c-24.23,55.02-33.51,113.38-28.38,173.42,5.24,61.46,18.78,114.34,36.01,173.18,8.61,29.42,16.82,57.69,23.21,87.72,14.82,69.72-6.47,103.76,13.11,193.97,7.61,35.08,17.55,68.48,28.44,102.68l17.96,56.41c4.21,13.22,5.6,26.21,3.62,40.05-1.1,7.71,3.87,16.03,2.15,23.67-3.92,17.41-9.9,34.01-15.4,51.07-3.99,12.35-17.47,24.97-17.82,37.46-.17,6.07,3.3,8.05,7.55,10.55,6.78,4,14.36,6.76,22.06,4.73-1.38-3.13-5.88-2.79-6.59-4.76-2.36-6.49,2.19-12.11,4.34-19.02-8.16,2.73-8.63,11.73-8.96,19.1-2.47.64-4.51-1.34-5.51-2.83-3.39-5.06,4.33-14.09,1.28-15.69-6.12,2.68-5.38,8.6-6.61,14.24-10.61-12.36,11.87-25.17,19.64-56.42,3.21-12.93,8.54-25.05,10.88-38.2,1.4-7.91-3.41-16-2.49-23.9,1.41-12.1,1.85-23.42-1.86-35.3l-28.36-90.94c-20.36-65.29-29.54-108.28-27.76-176.14l.83-31.9c.58-22.12-1.96-42.67-6.62-63.61-5.03-22.65-10.77-44.16-17.13-66.35l-14.65-51.17c-21.06-73.58-37.57-163.51-20.94-239.38,39.39,16.67,79.72,46.48,109.35,75.33,7.85,7.64,12.11,16.69,14.58,27.18,4.88,20.76,4.8,41.46,6.22,62.74,1.17,17.5.21,33.94.28,51.57l.46,114.81,1.04,22.66-.39,60.89c-.1,15.17-2.54,29.6-.37,44.54l5.33,36.82c2.97,20.49,5.74,40.14,5.92,60.97l.67,81.26,1.24,88.49c.25,17.73-2.09,34.23-7.29,50.93-6.84,21.95-1.21,28.81-2.78,43.8-2.13,20.32-6.29,39.8-12.04,59.7-.17,1.66-1.12.62-1.71-.83-1.46-.9-3.2-1.02-4.21-2.1-1.98-2.11,3.25-13,3.73-16.92-6.64,1.48-10.03,14.85-7.17,19.94,2.06,3.67,9.22,1.09,7.99,5.66-3.15,11.72-4.58,23.5-2.93,35.42.87,6.25,4.85,10.38,8.48,12.85,5.75,3.92,10.76,1.45,16.33,1.77,6.57.37,11.94-.12,16.57-4.9,3.78,1.85,8.84,2.45,13.63,1.06l10.76-3.13c8.48-2.47,13.34-7.73,12.97-16.74-.28-6.93-.37-13.54-2.15-20.44-4.59-17.85-6.94-35.68-9.46-53.82-3.05-22.04,6.11-14.1,4.18-44.01-1.19-18.38.45-35.25,4.37-52.99l16.07-72.71,19.02-83.71c6.94-30.56,10.43-60.57,8.25-91.98l-4.23-60.96c-2.2-31.81,1.9-62.58,8.81-93.49l13.39-59.9c10.71-47.89,22.17-94.6,29.84-143.19,7.09-44.89,7.09-89.23-2.04-133.53-5.88-28.53-13.71-55.28-25.73-80.79,16.43,11.74,24.02,20.23,44.26,9.9,12.68-6.47,23.32-14.46,35.16-22.6,29.37-20.2,56.42-42.55,79.86-69.42,5.76-6.61,10.8-14.35,11.77-22.99,1.69-15.15-14.98-34.13-24.41-45.68ZM588.33,425.41c0-1,2.33-.03,2.64.57.4.78-.34,1.92-.34,3.16l-.04,56.58c0,3.52,1.62,6.99-2.83,7.86l.58-68.17ZM546.95,312.36c3.21-12.58,5.01-25.35,5.72-37.99,1.97-1.08,4.38-1.46,5.65-1.09,5.23,1.56,2.99,30.57-11.37,39.08ZM424.93,274.23c2.55-1.38,6.71,1.39,6.96,5.17.82,12.43,3.14,23.66,5.58,34.26-11.08-10.4-15.67-25.61-12.54-39.44ZM443.58,317.84c-3.1-10.5-10.1-40.74-6.05-49.52,3.01-6.54,9.79-10.96,15.84-14.45,12.55-7.24,40.37-24.56,45.56-38.83-3.63,1.75-7.15,5.02-8.83,8.09-1.92,3.51-3.64,3.78-6.57,5.68-8.39,5.45-15.93,11.87-24.82,16.73-5.41,2.95-10.2,6.61-15.27,9.87-6.03,3.87-9.32,8.8-12.65,15.13-.98,1.86-5.18-1.89-5.14-4.18.18-10.16-.85-19.77.29-29.82,1.48-12.96,5.11-25.51,12.52-36.17,16.97-24.42,61.6-31.14,85.22-14.55,1.05.9.87,3.44,1.57,4.21,1.8,1.96,18.66-1.08,28.78,21.78,7.89,17.83,8.2,37.71,3.81,56.68-.39,1.68-1.61,2.36-2.65,2.37-.82.01-2.46-1.14-2.52-2.61-.37-9.42-5.65-16.37-10.83-23.94l-10.5-15.33c-6.43,1.18,14.05,24.45,13.27,27.85-4.76-1.91-4.06-7.56-8.78-8.94-2.76-.81-3.4-3.8-4.96-5.66-6.8-8.16-11.16-16.72-15.37-26.62-2.55,24.12,30.68,42.3,31.56,52.09,1.68,18.53-2.15,36.41-7.92,54.88-4.05,12.96-12.76,23.93-22.91,31.85-12.01,9.36-27.84,10.26-41.02,3-15.36-8.46-26.71-22.86-31.65-39.59ZM403.51,422.85c13.21-1.9,34.99-8.24,44.3-18.16,8.55-9.11,10.08-21.15,10.5-33.02.25-7.22,1.56-13.89-.45-21.81,11.87,11.03,25.31,18.71,41.3,16.73,12.05-1.49,21.12-8.89,29.89-17.45-5.16,26.74-1.56,56.1,26.74,66.89,8.73,3.33,17.44,5.68,26.43,8.04,1.6.42,1.41,4.45-.02,4.7-3.16.55-5.59-1.07-8.52-1.05l-56.52.36c-12.54.08-18.51,11.09-17.2,13.17,2.67,4.22,4.47-8.71,18.77-8.75l61.43-.16c.57-.38,1.06-2.46,1.35-2.18.34.32,1.26,1.53,1.26,2.07l.2,63.43-20.48,10.35c-24.16,12.22-51.86,29.14-61.09,52.89-.67-7.52-.79-12.55-.56-18.81-3.01-3.87-3.89,21.22-4,22.67-.18,2.45-3.44,2.43-4.91,2.58-9.42.9-2.19-26.06-8.54-26.99l-1.1,13.41c-15.24-23.71-46.77-40.78-71.5-52.11-3.27-1.5-6.15-2.92-9.1-5.44l.11-61.51,60.72-.06c13.07-.01,15.95,12.67,20.37,8.98-3.04-7.62-10.67-13.65-19.68-13.67l-57.54-.1c-2.13,0-3.64,1.21-3.89-.77-.25-1.94-.46-3.9,1.73-4.21ZM396.12,423.08c2.17,23.12-.43,45.32,1.09,67.76-1.05.66-2.11.8-2.49.49.3.25-2.05-62.1,1.4-68.25ZM370.59,722.35c.09,2.04-.21,4.06-.86,5.99-7.34,21.63-13.79,48.47-19.78,70.04l-16.12,58.05c-11.26,40.55,4.17,36.89,3.42,78.16l-.87,47.95c-4.46,0-8.27-15.41-9.37-19.65-2.49-9.67.1-19.5-4.38-29.13-3.65,13.35-.34,43.52,9.65,49.98,4.66,3.01,9.13,5.45,12.9,9.94.87,1.03,3.58.62,3.72,1.7.23,1.72-.04,3.21-.54,5.3-14.7-.47-20.62-13.98-25.75-27.34-2.29-5.96-.97-12.3-4.46-18.82-3.01,14.54,1.8,28.12,10.15,40.21,4.42,6.39,9.48,12.15,11.51,20.37-2.87,4.34-23.59-19.71-24.8-21.28-8.88-11.5-9.89-25.58-13.64-40.23-6.97,9.38,6.45,43.45,15.1,47.84-6.85-3.02-11.84-9.46-13.53-17.08-2.15-9.69-7.08-18.87-7.72-28.93-.85-13.35,1.96-26.32,3.06-39.83l7.67-94.39,5.43-68.95c1.37-17.33,4.3-33.55,7.98-50.47,3.39-15.57,9.04-39.46,9.06-54.53l.08-46.21-3.41-93.13c-.57-15.68.34-30.68,3.82-45.57,7.18-30.8,35.45-32.52,60.79-36.42l-.41,68.75c-.05,7.7-4.5,14.66-6.91,21.62l-6.08,17.61-5.71-36.81c-4.48,12.47,2.6,42.37,2.05,52.59-.69,12.79,4.5,23.87,5.04,35.96,1.39,30.79-8.73,100.39-7.13,136.71ZM381.13,533.9l13.97-38.53c6.75,5.05,11.85,7.39,18.18,10.41,23.27,11.1,57.83,30.04,68.12,54.7,1.84,4.41,2.15,9.27-1.23,12.94-5.89,6.41,2.15,3.75-11.47,12.18-11.85,7.33-24.29,11.9-38.61,14.11-12.7,1.96-31.38,1.66-40.8-8.97-13.4-15.11-14.63-38.98-8.16-56.84ZM390.11,597.94c23.64,13.48,57.75,6,79.22-7.78,7.66-4.92,13.46-11.55,15.56-20.05,29.12,2.32,11.24-11.85,40.4-35.25,21.48-17.23,41.33-26.24,65.79-37.64,5.46,17.43,15.25,33.93,16.05,52.4.56,12.99-.48,26.09-7.3,37.14-5.65,9.14-16.57,13.28-27.36,13.87-16.03.88-31.34-3.81-45.72-10.23-9.45-4.22-14.53-11.72-20.87-20.65.21,31.78,78.58,47.04,92.71,24.52l-2.98,17.17c-23.91-1.93-46.68-5.59-69.94-11.61-31.74-8.22-45.99-4.84-77,2.78-18.64,4.57-36.92,7.74-56.03,8.84-1.4-4.74-1.99-8.87-2.55-13.51ZM611.96,562.61c.36-19.42,3.31-26.79,9.31-45.57l26.18,25.97,73.95,74.51c-6.05,7.97-10.72,15.94-16.22,24.36-15.6,23.92-34.06,45.05-57.42,61.47-23.66-8.06-26.68-25.16-55.93-29.47,4.22-28.37,6.69-55.63,12.84-82.9,2.2-9.77,7.1-18.13,7.29-28.37ZM497.14,1267.14c-1.09-7.5-.5-14.29-.16-21.56l1.05-22.55c1.16-24.95-.03-49.12-.29-74.34l-.94-88.45c-.07-6.98-1.45-13.35-.6-20.4,2.48-20.37-1.36-23.94.45-41.92.4-3.97-.98-8.54-.79-13.1,1.13-27.1-.85-53.41-7.21-80.47,7.73.85,14.56,1.61,21.77-.64-2.96,14.2-4.85,27.32-5.49,41.32l-1.51,33.29v174.09s1.31,45.22,1.31,45.22c.86,30.16,6.49,47.62,4.74,78.1l-1.48,25.94-1.76,27.7-9.08-62.23ZM641.7,945.55c-8.45,54.23-21.03,106.45-33.84,159.72l-12.67,60.21c-5.46,25.97-7.33,51.53-5.53,77.88l4.25,61.93c2.08,30.32-4.5,74.81-11.43,104.73l-17.56,75.76c-7.19,31.01-14.49,61.05-18.35,92.58-1.92,15.73,2.48,38.34-2.72,50.03-2.17,4.87-3.12,10.87-2.37,16.44,2.37,17.62,4.58,34.79,8.45,52.12,2.3,10.26,4.59,19.79,3.27,30.49-.55,4.5-4.8,8.63-6.17,7.91-.62-.32,2.74-16.12-5.89-20.4.53,7.05,5.65,25.1-5.07,23.78,2.8-6.92-4.5-23.61-7.16-22.11-2.98,1.68,6.05,10.96,2.13,22.23-.61,1.77-3.01,2.15-4.16,1.77-10.64-3.57,1.8-11.58-11.35-22.43.48,6.14,3.18,10.43,3.08,16.29-.08,4.76-4.18,10.06-8.67,8.59-2.24-5.65-.9-13.09-5.24-18.47-4.91,3.98,2.5,11.36-.41,17.35-4.09,3.4-10.27,2.17-14.45-.62-11.97-8-4.98-33.48-1.78-46.16,5.05-20.02,10.23-39.28,12.54-59.6,1.47-12.97-3.42-26.09.85-39.51,6.25-19.66,9.72-39.06,9.43-60.05l-1.09-81.17-.96-71.86c-.3-22.36,1.08-43.32,2.69-65.67,1.77-24.49,4.35-48.27,1.92-72.64-2.09-20.9-4.26-40.78-4.59-61.77l-.95-59.42.6-151.59c.08-20.9,1.49-40.31,5.23-60.4,2.4-11.92,7.81-21.4,16.69-29.89,31.36-29.99,67.09-54.31,108.43-71.9,10.03,45.17,9.96,90.24,2.85,135.86ZM637.84,804.87c-12.78,6.17-24.82,11.23-36.92,18.35-23.56,13.87-77.55,50.09-88.56,75.38-8.08,2.65-16.72,2.75-25.27.63-5.79-10.17-13.03-18.06-21.82-25.97-28.02-25.24-66.74-53.43-102.45-67.43.91-6.81,2.75-13.39,4.94-20.33,53.02,18.23,102.34,25.35,158.86,21.96,36.37-2.18,70.81-10.92,105.92-22.45l5.3,19.87ZM772.59,649.66c-23.61,26.33-50.39,48.28-79.64,68.15-10.6,7.2-20.34,14.15-31.52,20.07-27.12,14.34-37.2-15.49-51.55-13.21-17.01,2.7-28.02,8.31-45.04,3.38-.76-.22-1.55-.64-2.38-1.03,7.44-1.84,20.57-5.09,21.55-5.52,10.69-4.67,21.59-5.82,34.43-5.69-4.58-7.15-25.44-1.91-32.12.37-4.47,1.53-32.77,7.51-29.15,11.85.01.01.03.01.04.02.05.07.11.15.2.22,4.08,3.4,4.62,4.03,10.34,4.71,26.55,3.17,25.76-4.44,46.26-2.61,6.78,16.79,12.63,32.77,17.68,50.29l-35.29,10.34c-38.87,11.39-84.93,14.26-125.5,11.51-35.18-2.39-68.91-9.88-102.07-21.63l15.6-42.69c3.45,1.1,5.88,3.24,9.62,1.27-1.54-3.61-5.43-3.04-8.16-5.67l9.33-23.4c6.56-16.44,8.21-33.13,5.28-50.64l-7.34-43.83c20.69-1.25,40.56-4.87,60.78-10.03,25.08-6.4,41.17-8.24,66.66-2.72,24.11,6.78,47.98,10.34,74.51,12.33-2.3,19.86-6.44,38.37-7.4,58.18-12.91,1.23-24.32,5.18-35.47,11.02-1.69,1.65-2.84,3.3-2.37,5.3,1.55,6.62,17.7,3.26,22.91,3.32-7.3,5.53-31.14,16.29-28.81,25.33,2.38,9.23,25.61-3.96,30.86-7.48,12.55-8.42,26.43-8.01,41.65-9.29-14.56-6.37-29.64-2.17-42.42,4.7-8.57,4.6-16.28,10.25-26.56,11.44,1.58-5.59,6.84-7.37,10.91-10.27,8.28-5.89,16.52-10.69,26.18-14.35,8.19-3.1,16.88-1.82,26.54-3.37-16.2-7.45-39.61,2.28-57.72-.87,48.88-26.09,60.55,2.19,84.52,15.15,7.27,3.93,13.98,7.57,20.57,13.58,1.54-6.18-3.26-7.67-7.71-11.45,22.1-15.88,40.12-35.36,55.42-57.71,7.48-10.92,13.49-21.97,21.76-32.15,6.33-7.8,15.47-10.83,25.39-14.65-9.24-4.74-21.76,5.05-29.14,11.44-19.33-17.46-36.42-35.81-54.67-54.26l-46.92-47.41c-1.55-1.57.28-4.57-1.97-6.55l-10.53,32.75c-3.42-20.16-14.79-31.94-14.75-50.48l.12-61.22c40.07,2.59,51.53,10.18,74.42,42.79,17.6,25.08,36.75,47.88,56.13,71.66l43.98,53.94c5.45,6.68,9.83,13.75,13.21,21.45,5.49,12.51-1.92,23.9-10.61,33.59Z"/>
    <path class="st1" d="M448.42,1242.48c-6.63-13.23-5.18-28.58-10.34-42.23-2.59,4.34,2.81,44.41,10.34,42.23Z"/>
    <path class="st1" d="M533.43,1246.67c-6.8-15.25-9.96-28.82-11.44-44.51-6.37,5.64,2.28,42.7,11.44,44.51Z"/>
    <path class="st1" d="M567.27,1232.96c3.34-11.25,5.35-21.39,3.39-32.24-1.44.16-8.59,35.31-3.39,32.24Z"/>
    <path class="st1" d="M500.02,740.96c-3.93.1-5.39,27.8,2.86,19.1l.34-16.38c.04-1.81-2.18-2.74-3.2-2.72Z"/>
    <path class="st1" d="M435.99,750.74c-4.75-2.49-10.34-2.36-15.63-3.28-1.78,5.47,11.95,6.47,13.76,6.98,1.13.32,3.67-2.76,1.88-3.7Z"/>
    <path class="st1" d="M521.14,756.1c-1.54-.87-5.09,1.92-3.59,3.17,4.26,3.54,11.58,3.15,14.89-1.79-4.06-2.52-7.54-.98-11.3-1.37Z"/>
    <path class="st1" d="M553.76,754.91l-9.18,1.12c-1.63.2-2.85,1.25-2.72,2.53.36,3.63,18.73,2.44,15.6-3.06-.59-1.03-1.8-.82-3.7-.59Z"/>
    <path class="st1" d="M469.88,756.03c4.58,3.9,12.22,5.73,16.82,1.6-5.47-4.05-11-4.24-16.82-1.6Z"/>
    <path class="st1" d="M412.11,745.59c-3.91-1.55-7.91-2.79-12.27-3.84-1.58-.38-3.48,2.51-2.2,3.21,14.52,7.89,16.93,1.61,14.47.63Z"/>
    <path class="st1" d="M584.35,755.54c-5.59-4.31-12.02-3.01-17.51.67,5.81,3.39,11.98,2,17.51-.67Z"/>
    <path class="st1" d="M616.22,750.21c-4.9-1.87-10.67-.81-14.91,2.3-6.71,4.92,13.99,2.97,14.91-2.3Z"/>
    <path class="st1" d="M460.73,754.57c-4.75-2.49-16.27-5.09-14.63-.26.24.71,1.43,1.46,2.66,1.66l8.04,1.36c1.41.24,2.4.8,3.2.05.49-.46,2.06-2.12.74-2.81Z"/>
    <path class="st1" d="M512.14,203.79c-12.14-9.93-40.12,3.94-50.07,11.77-2.69,2.12-35.29,31.13-24.86,34.31,13.56-23.67,35-40.49,61.14-45.84,4.81-.98,8.72,3.67,13.79-.25Z"/>
  </g>
  <rect class="st1" x="623.82" y="747.8" width="103.05" height="4.52"/>
  <rect class="st1" x="531.5" y="1739.54" width="195.36" height="4.52"/>
  <rect class="st1" x="223.28" y="1240.46" width="996.26" height="10.93" transform="translate(1967.33 524.52) rotate(90)"/>
</svg>